Coordinates
version=1
nRows=5
nColumns=63
inDegrees=yes

Units are S.I. units (second, meters, Newtons, ...)
If the header above contains a line with 'inDegrees', this indicates whether rotational values are in degrees (yes) or radians (no).

endheader
time	pelvis_tilt	pelvis_list	pelvis_rotation	pelvis_tx	pelvis_ty	pelvis_tz	hip_flexion_r	hip_adduction_r	hip_rotation_r	knee_angle_r	knee_angle_r_beta	ankle_angle_r	subtalar_angle_r	mtp_angle_r	hip_flexion_l	hip_adduction_l	hip_rotation_l	knee_angle_l	knee_angle_l_beta	ankle_angle_l	subtalar_angle_l	mtp_angle_l	L5_S1_Flex_Ext	L5_S1_Lat_Bending	L5_S1_axial_rotation	L4_L5_Flex_Ext	L4_L5_Lat_Bending	L4_L5_axial_rotation	L3_L4_Flex_Ext	L3_L4_Lat_Bending	L3_L4_axial_rotation	L2_L3_Flex_Ext	L2_L3_Lat_Bending	L2_L3_axial_rotation	L1_L2_Flex_Ext	L1_L2_Lat_Bending	L1_L2_axial_rotation	L1_T12_Flex_Ext	L1_T12_Lat_Bending	L1_T12_axial_rotation	Abs_r3	Abs_r2	Abs_r1	Abs_t1	Abs_t2	neck_flexion	neck_bending	neck_rotation	arm_flex_r	arm_add_r	arm_rot_r	elbow_flex_r	pro_sup_r	wrist_flex_r	wrist_dev_r	arm_flex_l	arm_add_l	arm_rot_l	elbow_flex_l	pro_sup_l	wrist_flex_l	wrist_dev_l
      1.53658537	      3.06147911	     -9.68055027	     86.25590207	      0.26545004	      0.79983504	      0.70522642	     19.75259364	      5.28179606	     -2.67957160	     32.63102334	      0.56951880	     44.63884273	      3.09513188	      0.00000000	     16.62504795	     -8.30097555	     -6.29251160	     26.49248248	      0.46238105	     46.40034693	      6.25088699	      0.00000000	      0.02172535	     -0.36053434	      1.70261032	      0.04034616	     -0.47951067	      1.80902346	      0.03569258	     -0.87660319	      1.80902346	      0.02482991	     -0.87660319	      1.48978403	      0.02017416	     -0.73520163	      1.38337088	      0.01241387	     -0.55846769	      1.27695774	      0.15518203	     -4.07843656	      9.46940779	      0.00000000	      0.00000000	     20.80385676	      3.52475084	      4.42651293	    -59.14941237	    -65.55398338	    -52.40849901	      7.21336964	     39.08488031	     -6.96455419	     22.23235406	    -17.15974105	    -77.34650648	     49.95466712	      0.96770045	     44.06427239	    -26.47911272	     -0.61049266
      1.56097561	      3.32067907	    -10.34953219	     86.31439778	      0.26450698	      0.80176489	      0.70432702	     19.36401008	      5.22899732	     -3.72398622	     30.76558268	      0.53696071	     44.55924004	      5.04460860	      0.00000000	     16.64346105	     -8.35329183	     -5.99785617	     25.05507524	      0.43729356	     45.96107801	      6.64470894	      0.00000000	      0.03156514	     -0.41892169	      1.75961502	      0.05861963	     -0.55716585	      1.86959096	      0.05185838	     -1.01856619	      1.86959096	      0.03607580	     -1.01856619	      1.53966315	      0.02931139	     -0.85426511	      1.42968721	      0.01803632	     -0.64890970	      1.31971127	      0.22546667	     -4.73892593	      9.78645087	      0.00000000	      0.00000000	     20.81591115	      3.27628682	      4.93662824	    -65.75772941	    -67.32382777	    -53.57724767	      7.83035889	     39.70952559	     -4.94681982	     26.53293635	    -21.16888877	    -77.79714562	     48.86202877	      0.97828757	     43.61020795	    -25.54191337	      0.72076942
      1.58536585	      3.83994852	    -11.08792047	     86.85295458	      0.26269622	      0.80379262	      0.70321812	     18.79203021	      5.27149600	     -5.62001534	     28.37478031	      0.49523334	     44.33612322	      7.09407842	      0.00000000	     16.69298047	     -8.52864860	     -5.26743482	     23.47492123	      0.40971467	     45.49423218	      7.14008671	      0.00000000	      0.04803127	     -0.46946095	      1.60875601	      0.08919887	     -0.62438307	      1.70930326	      0.07891057	     -1.14144736	      1.70930326	      0.05489494	     -1.14144736	      1.40766151	      0.04460184	     -0.95732478	      1.30711425	      0.02744507	     -0.72719502	      1.20656700	      0.34308255	     -5.31063620	      8.94741828	      0.00000000	      0.00000000	     21.49986476	      3.01469251	      4.60276425	    -69.32315512	    -69.62403614	    -71.13127622	      8.39783063	     56.00422411	     -3.54641318	     30.37749231	    -35.19853255	    -77.69872332	     36.83557190	      1.13040566	     29.88314926	    -19.06325280	     -4.90916481
      1.60975610	      4.15062456	    -11.81852759	     87.04474750	      0.26148232	      0.80578511	      0.70209495	     18.09461235	      5.31399356	     -7.21687427	     25.74694103	      0.44936889	     43.80823017	      9.13263149	      0.00000000	     16.49911143	     -8.63763794	     -5.31637104	     21.71174369	      0.37894141	     44.88458196	      7.78490966	      0.00000000	      0.05883955	     -0.57769732	      1.73145011	      0.10927093	     -0.76833743	      1.83966574	      0.09666750	     -1.40461326	      1.83966574	      0.06724772	     -1.40461326	      1.51501885	      0.05463841	     -1.17804037	      1.40680321	      0.03362092	     -0.89485315	      1.29858758	      0.42028502	     -6.53502761	      9.62980608	      0.00000000	      0.00000000	     22.60430634	      2.03500248	      1.29232521	    -76.13429377	    -71.09193966	    -75.34859055	      7.97496477	     55.30534408	     -1.63220645	     31.97533928	    -46.13189998	    -78.64747540	     31.20891642	      1.15822943	     22.37978120	    -13.45301349	     -4.59530029
      1.63414634	      4.49939769	    -12.38448695	     87.24241791	      0.26001628	      0.80733359	      0.70147520	     17.09664123	      5.45342129	     -8.91773827	     22.97192798	      0.40093578	     42.84260285	     11.59403994	      0.00000000	     16.23499963	     -8.78617848	     -5.50222836	     20.18372537	      0.35227246	     44.43646344	      8.38280503	      0.00000000	      0.05107041	     -0.68295985	      1.91557522	      0.09484285	     -0.90833660	      2.03529868	      0.08390357	     -1.66054857	      2.03529868	      0.05836837	     -1.66054857	      1.67612832	      0.04742398	     -1.39269172	      1.55640487	      0.02918163	     -1.05790480	      1.43668142	      0.36479081	     -7.72577839	     10.65385472	      0.00000000	      0.00000000	     23.45121424	      0.98858662	     -1.80963528	    -84.92505401	    -72.28659967	    -79.70082118	      7.41068874	     54.23626760	      0.58607026	     32.17732956	    -56.78847231	    -79.97400857	     30.31285670	      0.94517899	     24.23672576	    -12.78054080	     -0.89465225
